<svg width="25" height="25" viewBox="0 0 25 25" fill="none" xmlns="http://www.w3.org/2000/svg">
<path d="M3.48818 5.36328H21.4882C21.6704 5.36385 21.8491 5.41412 22.0049 5.50866C22.1607 5.6032 22.2877 5.73845 22.3724 5.89984C22.457 6.06122 22.4961 6.24264 22.4853 6.42457C22.4745 6.60649 22.4143 6.78203 22.3112 6.93228L13.3112 19.9323C12.9382 20.4713 12.0402 20.4713 11.6662 19.9323L2.66618 6.93228C2.56201 6.78234 2.50092 6.60671 2.48955 6.42449C2.47818 6.24226 2.51697 6.0604 2.6017 5.89868C2.68643 5.73695 2.81386 5.60153 2.97015 5.50714C3.12644 5.41275 3.3056 5.363 3.48818 5.36328Z" fill="#FFFEFE"/>
</svg>
