<svg width="240" height="48" viewBox="0 0 240 48" fill="none" xmlns="http://www.w3.org/2000/svg">
<path d="M9.98013 25.485C9.98013 25.535 10.1551 25.56 10.5051 25.56C10.8551 25.51 11.2551 25.485 11.7051 25.485H20.1051C20.5051 25.485 20.8551 25.41 21.1551 25.26C21.5051 25.11 21.8801 25.035 22.2801 25.035V24.585C22.3801 24.135 22.4551 23.46 22.5051 22.56C22.5551 21.66 22.5801 20.985 22.5801 20.535C22.5801 20.135 22.5551 19.735 22.5051 19.335C22.4551 18.885 22.4301 18.46 22.4301 18.06C22.4801 17.66 22.4801 17.285 22.4301 16.935C22.3801 16.535 22.3551 16.135 22.3551 15.735V12.285C22.3551 12.135 22.3551 11.81 22.3551 11.31C22.4051 10.76 22.4051 10.21 22.3551 9.65998C22.3551 8.85998 22.3801 8.20998 22.4301 7.70998C22.4801 7.15998 22.4551 6.43498 22.3551 5.53498C22.4051 5.33498 22.4051 5.15998 22.3551 5.00999C22.3051 4.80999 22.2801 4.58499 22.2801 4.33499C22.2801 4.23498 22.2551 4.15998 22.2051 4.10998C22.2051 4.00998 22.2051 3.90998 22.2051 3.80998C22.2051 3.60998 22.2051 3.40998 22.2051 3.20998C22.2051 3.00998 22.2301 2.78498 22.2801 2.53498H30.3051C30.5551 2.78498 30.6801 3.00998 30.6801 3.20998C30.7301 3.35998 30.7551 3.55998 30.7551 3.80998C30.7551 4.50998 30.7301 5.18498 30.6801 5.83498C30.6801 6.43499 30.6801 7.00999 30.6801 7.55998C30.6801 8.45998 30.6051 9.43498 30.4551 10.485C30.3551 11.485 30.3051 12.535 30.3051 13.635C30.3051 14.035 30.3301 14.535 30.3801 15.135C30.4301 15.735 30.4051 16.285 30.3051 16.785C30.1551 18.035 30.0551 19.235 30.0051 20.385C30.0051 21.535 30.0051 22.685 30.0051 23.835C30.0051 24.835 30.0551 25.86 30.1551 26.91C30.2551 27.91 30.3051 28.835 30.3051 29.685C30.2051 30.035 30.1551 30.66 30.1551 31.56C30.1551 32.41 30.1551 33.335 30.1551 34.335C30.2051 35.335 30.2301 36.285 30.2301 37.185C30.2801 38.085 30.3051 38.71 30.3051 39.06V46.71C29.2051 46.71 28.2051 46.76 27.3051 46.86C26.4551 47.01 25.5801 47.085 24.6801 47.085C24.2801 47.085 23.9301 47.085 23.6301 47.085C23.3801 47.135 23.0551 47.285 22.6551 47.535L22.2801 47.085C22.3301 46.735 22.3551 46.26 22.3551 45.66C22.3551 45.06 22.3301 44.435 22.2801 43.785C22.2801 43.085 22.2801 42.435 22.2801 41.835C22.2801 41.235 22.2801 40.76 22.2801 40.41C22.3301 39.26 22.3551 38.11 22.3551 36.96C22.4051 35.76 22.4301 34.585 22.4301 33.435C22.4301 33.485 22.4051 33.36 22.3551 33.06C22.3551 32.76 22.3551 32.435 22.3551 32.085C22.3551 31.685 22.3301 31.31 22.2801 30.96C22.2801 30.61 22.2801 30.385 22.2801 30.285C22.2801 30.085 22.2051 30.01 22.0551 30.06C21.9551 30.11 21.8051 30.11 21.6051 30.06C21.0551 29.96 20.6051 29.96 20.2551 30.06C19.9051 30.11 19.4801 30.135 18.9801 30.135C18.6801 30.135 18.3051 30.16 17.8551 30.21C17.4051 30.21 16.9301 30.235 16.4301 30.285C15.9801 30.285 15.5301 30.31 15.0801 30.36C14.6301 30.41 14.2551 30.435 13.9551 30.435L10.6551 30.51C10.4051 30.51 10.1801 30.51 9.98013 30.51C9.83013 30.46 9.65513 30.46 9.45513 30.51C9.30513 30.51 9.23013 30.61 9.23013 30.81C9.23013 30.91 9.25513 30.985 9.30513 31.035C9.30513 31.635 9.33013 32.26 9.38013 32.91C9.43013 33.51 9.45513 34.16 9.45513 34.86V36.885C9.45513 38.185 9.43013 39.46 9.38013 40.71C9.38013 41.96 9.28013 43.235 9.08013 44.535V46.71C8.83013 46.91 8.58013 47.01 8.33013 47.01C8.13013 47.06 7.83013 47.085 7.43013 47.085C7.03013 47.085 6.53013 47.085 5.93013 47.085C5.33013 47.135 4.83013 47.285 4.43013 47.535H2.25513C2.00513 47.535 1.78013 47.485 1.58013 47.385C1.38013 47.335 1.05513 47.235 0.605133 47.085V41.985C0.605133 40.735 0.580133 39.935 0.530133 39.585C0.530133 39.235 0.530133 38.96 0.530133 38.76C0.430133 38.51 0.405133 38.21 0.455133 37.86C0.505133 37.51 0.530133 37.26 0.530133 37.11C0.630133 36.06 0.630133 34.985 0.530133 33.885C0.480133 32.735 0.430133 31.785 0.380133 31.035C0.330133 30.585 0.305133 30.16 0.305133 29.76C0.305133 29.31 0.305133 28.86 0.305133 28.41C0.305133 27.56 0.330133 26.735 0.380133 25.935C0.480133 25.085 0.480133 24.235 0.380133 23.385C0.280133 22.285 0.305133 21.385 0.455133 20.685C0.505133 20.485 0.480133 20.135 0.380133 19.635C0.280133 19.085 0.230133 18.51 0.230133 17.91C0.230133 17.11 0.255133 16.385 0.305133 15.735C0.355133 15.085 0.380133 14.46 0.380133 13.86C0.430133 13.26 0.455133 12.635 0.455133 11.985C0.505133 11.335 0.505133 10.61 0.455133 9.80998C0.455133 9.60998 0.455133 9.28498 0.455133 8.83498C0.455133 8.33498 0.455133 7.80998 0.455133 7.25998C0.505133 6.70998 0.530133 6.20999 0.530133 5.75998C0.580133 5.25999 0.605133 4.90999 0.605133 4.70998C0.605133 4.25998 0.555133 3.93498 0.455133 3.73498C0.355133 3.48498 0.305133 3.25998 0.305133 3.05998V2.53498H9.45513C9.65513 2.73498 9.80513 2.93498 9.90513 3.13498C9.95513 3.23498 9.98013 3.30999 9.98013 3.35998C10.0301 4.35998 10.0301 5.33498 9.98013 6.28498C9.93013 7.23498 9.88013 8.20998 9.83013 9.20998C9.83013 10.56 9.85513 11.885 9.90513 13.185C10.0051 14.485 10.0801 15.785 10.1301 17.085C10.1301 17.785 10.1051 18.51 10.0551 19.26C10.0551 20.01 10.0551 20.735 10.0551 21.435C10.0551 22.135 10.0301 22.91 9.98013 23.76C9.93013 24.61 9.93013 25.185 9.98013 25.485ZM29.578 36.06C29.928 35.06 30.278 34.085 30.628 33.135C31.028 32.135 31.403 31.135 31.753 30.135C32.003 29.385 32.328 28.635 32.728 27.885C33.128 27.135 33.478 26.46 33.778 25.86C34.028 25.01 34.278 24.335 34.528 23.835C34.828 23.285 35.003 22.935 35.053 22.785C35.053 22.685 35.153 22.435 35.353 22.035C35.603 21.635 35.878 20.985 36.178 20.085C36.328 19.635 36.453 19.16 36.553 18.66C36.703 18.16 36.878 17.685 37.078 17.235L38.878 12.885C39.078 12.335 39.203 11.935 39.253 11.685C39.353 11.385 39.428 11.135 39.478 10.935C39.528 10.735 39.578 10.51 39.628 10.26C39.678 10.01 39.828 9.60998 40.078 9.05998C40.328 8.50998 40.528 7.98498 40.678 7.48498C40.878 6.98498 41.103 6.45998 41.353 5.90998C41.453 5.60998 41.553 5.30998 41.653 5.00999C41.753 4.70998 41.853 4.40998 41.953 4.10998C42.103 3.70998 42.228 3.35998 42.328 3.05998C42.428 2.75998 42.528 2.40998 42.628 2.00998C42.728 1.90998 42.803 1.78498 42.853 1.63498C42.903 1.43498 43.003 1.20998 43.153 0.959984C43.453 0.759984 43.703 0.659983 43.903 0.659983C44.103 0.609984 44.303 0.584984 44.503 0.584984H47.953C48.053 0.784985 48.103 0.984984 48.103 1.18498C48.103 1.33498 48.153 1.50998 48.253 1.70998L48.553 2.83498L48.778 3.43498L49.603 5.75998L50.953 9.58498L51.478 10.56C51.578 10.66 51.678 10.885 51.778 11.235C51.878 11.535 52.028 11.935 52.228 12.435C52.478 13.085 52.728 13.835 52.978 14.685C53.278 15.485 53.553 16.285 53.803 17.085C54.153 18.335 54.428 19.26 54.628 19.86C54.878 20.46 55.128 21.085 55.378 21.735C55.528 21.935 55.628 22.16 55.678 22.41C55.728 22.66 55.803 22.91 55.903 23.16L56.878 26.235L58.153 28.935C58.303 29.385 58.453 29.835 58.603 30.285C58.803 30.685 59.028 31.085 59.278 31.485C59.678 32.485 60.003 33.41 60.253 34.26C60.503 35.06 60.828 35.96 61.228 36.96C61.428 37.41 61.628 37.835 61.828 38.235C62.078 38.635 62.278 39.06 62.428 39.51C62.528 39.76 62.628 40.01 62.728 40.26C62.828 40.51 62.928 40.76 63.028 41.01C63.278 41.46 63.478 41.935 63.628 42.435C63.828 42.885 64.053 43.385 64.303 43.935C64.403 44.235 64.528 44.535 64.678 44.835C64.828 45.135 64.928 45.41 64.978 45.66C64.728 45.66 64.478 45.635 64.228 45.585C63.978 45.535 63.753 45.51 63.553 45.51H62.278C61.828 45.51 61.428 45.51 61.078 45.51C60.728 45.56 60.428 45.585 60.178 45.585C59.928 44.985 59.553 44.41 59.053 43.86C58.603 43.26 58.128 42.535 57.628 41.685C57.528 41.435 57.428 41.21 57.328 41.01C57.228 40.81 57.128 40.61 57.028 40.41C56.928 40.11 56.628 39.685 56.128 39.135C55.678 38.585 55.428 38.16 55.378 37.86C54.978 37.41 54.678 37.06 54.478 36.81C54.328 36.51 54.128 36.235 53.878 35.985C53.678 35.985 53.428 35.985 53.128 35.985C52.828 35.935 52.553 35.885 52.303 35.835C52.003 35.785 51.678 35.76 51.328 35.76H49.528C49.278 35.76 49.003 35.785 48.703 35.835C48.453 35.835 48.053 35.86 47.503 35.91C46.953 35.91 46.203 35.935 45.253 35.985C44.303 35.985 43.028 35.985 41.428 35.985H40.903C40.503 35.985 40.178 36.035 39.928 36.135C39.728 36.185 39.428 36.135 39.028 35.985C38.878 35.885 38.503 35.86 37.903 35.91C37.353 35.96 36.978 36.01 36.778 36.06L35.803 36.135L35.428 36.66C35.328 36.96 35.153 37.31 34.903 37.71C34.653 38.11 34.403 38.51 34.153 38.91C33.903 39.31 33.653 39.71 33.403 40.11C33.203 40.51 33.053 40.835 32.953 41.085L32.428 42.435L30.553 45.885C30.453 46.085 30.303 46.185 30.103 46.185C29.903 46.185 29.753 46.235 29.653 46.335H25.828C25.628 46.135 25.528 46.01 25.528 45.96C25.528 45.91 25.628 45.76 25.828 45.51C25.828 45.31 25.903 45.01 26.053 44.61C26.203 44.26 26.278 43.985 26.278 43.785C26.528 43.385 26.728 42.985 26.878 42.585C27.078 42.135 27.278 41.71 27.478 41.31L29.578 36.06ZM45.328 17.46C45.078 17.56 44.903 17.685 44.803 17.835C44.703 17.985 44.603 18.16 44.503 18.36C44.303 19.06 44.028 19.76 43.678 20.46C43.378 21.11 43.078 21.785 42.778 22.485C42.528 22.985 42.278 23.46 42.028 23.91C41.778 24.31 41.553 24.76 41.353 25.26C40.903 26.26 40.453 27.26 40.003 28.26C39.553 29.21 39.053 30.16 38.503 31.11H38.953C39.353 31.11 39.703 31.135 40.003 31.185C40.353 31.235 40.703 31.21 41.053 31.11C41.353 31.01 41.628 30.985 41.878 31.035C42.178 31.085 42.453 31.11 42.703 31.11C43.553 31.11 44.428 31.11 45.328 31.11C46.228 31.06 47.228 31.085 48.328 31.185C48.878 31.235 49.378 31.235 49.828 31.185C50.328 31.135 50.828 31.11 51.328 31.11H52.003C51.953 30.91 51.878 30.76 51.778 30.66C51.728 30.51 51.653 30.36 51.553 30.21C51.353 29.81 51.128 29.46 50.878 29.16C50.678 28.86 50.503 28.485 50.353 28.035L47.728 22.785C47.628 22.535 47.528 22.21 47.428 21.81L45.328 17.46ZM75.9204 17.535C76.9204 19.235 77.9704 21.035 79.0704 22.935C80.2204 24.835 81.4454 26.835 82.7454 28.935C82.9954 29.635 83.2954 30.285 83.6454 30.885C84.0454 31.435 84.4454 31.91 84.8454 32.31C85.0454 32.71 85.2954 33.21 85.5954 33.81C85.8954 34.36 86.1954 34.835 86.4954 35.235L86.6454 34.935V31.11C86.6454 31.01 86.6454 30.96 86.6454 30.96C86.6954 30.91 86.7204 30.835 86.7204 30.735C86.5204 29.585 86.4704 28.56 86.5704 27.66C86.7204 26.71 86.7454 25.71 86.6454 24.66C86.6954 24.31 86.7204 23.985 86.7204 23.685C86.7204 23.385 86.7204 23.085 86.7204 22.785L86.5704 18.885V9.58498C86.5704 9.38498 86.5704 9.00998 86.5704 8.45998C86.6204 7.90998 86.6454 7.30998 86.6454 6.65998C86.6454 5.95998 86.6454 5.28498 86.6454 4.63498C86.6454 3.98498 86.6454 3.48498 86.6454 3.13498C86.6454 2.93498 86.6704 2.75998 86.7204 2.60999C86.8204 2.40998 87.0704 2.30998 87.4704 2.30998H89.9454C90.3954 2.30998 90.9204 2.38498 91.5204 2.53498C92.1204 2.68498 92.5204 2.75998 92.7204 2.75998H93.0954C93.0954 4.45998 93.0954 6.20998 93.0954 8.00998C93.1454 9.75998 93.1704 11.435 93.1704 13.035C93.2204 14.585 93.2704 16.035 93.3204 17.385C93.3704 18.685 93.4204 19.735 93.4704 20.535C93.4204 20.935 93.3954 21.335 93.3954 21.735C93.4454 22.085 93.4454 22.46 93.3954 22.86C93.3454 23.41 93.3204 23.96 93.3204 24.51C93.3704 25.06 93.3954 25.61 93.3954 26.16V29.76C93.4454 31.11 93.4204 32.185 93.3204 32.985C93.2704 33.785 93.2454 34.26 93.2454 34.41C93.1954 35.11 93.1704 35.81 93.1704 36.51C93.1704 37.21 93.1704 37.91 93.1704 38.61C93.2204 39.56 93.2204 40.51 93.1704 41.46C93.1204 42.36 93.1204 43.285 93.1704 44.235C93.1704 44.635 93.1704 45.01 93.1704 45.36C93.1704 45.71 93.1954 46.085 93.2454 46.485C93.2454 46.735 92.9704 46.86 92.4204 46.86H89.9454C89.3454 46.96 88.8704 46.985 88.5204 46.935C88.1704 46.885 87.9204 46.86 87.7704 46.86C87.5204 46.21 87.2954 45.66 87.0954 45.21C86.8954 44.81 86.6704 44.41 86.4204 44.01C86.2204 43.61 85.9954 43.21 85.7454 42.81C85.4954 42.36 85.1954 41.835 84.8454 41.235C84.6954 40.985 84.4954 40.66 84.2454 40.26C83.9954 39.81 83.7704 39.46 83.5704 39.21C83.2704 38.86 83.0204 38.46 82.8204 38.01C82.6204 37.51 82.2954 37.06 81.8454 36.66C81.1954 35.66 80.5704 34.635 79.9704 33.585C79.3704 32.485 78.7204 31.385 78.0204 30.285C77.3204 29.235 76.5204 28.16 75.6204 27.06C74.7204 25.91 73.8204 24.635 72.9204 23.235C72.5204 22.285 71.9204 21.31 71.1204 20.31C70.3704 19.31 69.7204 18.36 69.1704 17.46C69.1704 17.36 69.1454 17.56 69.0954 18.06C69.0954 18.56 69.0954 19.135 69.0954 19.785C69.0954 20.385 69.0704 20.96 69.0204 21.51C69.0204 22.01 69.0204 22.26 69.0204 22.26V22.86C69.0704 23.26 69.0704 23.66 69.0204 24.06C68.9704 24.41 68.9454 24.785 68.9454 25.185L68.7954 34.485L68.9454 38.385C68.9454 38.685 68.9454 38.985 68.9454 39.285C68.9954 39.585 68.9954 39.91 68.9454 40.26C69.0454 40.96 69.0704 41.71 69.0204 42.51C68.9704 43.26 68.9704 44.01 69.0204 44.76C69.0704 45.46 69.0454 45.96 68.9454 46.26C68.8954 46.56 68.8204 46.76 68.7204 46.86H62.7954C62.3954 46.86 61.9704 46.86 61.5204 46.86C61.1204 46.91 60.7204 46.91 60.3204 46.86C60.2704 46.86 60.2204 46.635 60.1704 46.185C60.1704 45.785 60.1704 45.285 60.1704 44.685C60.1704 44.135 60.1704 43.56 60.1704 42.96C60.1704 42.36 60.1704 41.91 60.1704 41.61C60.1704 40.91 60.1704 40.21 60.1704 39.51C60.2204 38.76 60.2204 38.035 60.1704 37.335C60.1704 36.635 60.1954 35.96 60.2454 35.31C60.2954 34.61 60.2954 33.91 60.2454 33.21C60.2454 32.71 60.2204 32.31 60.1704 32.01C60.1704 31.66 60.1704 31.36 60.1704 31.11L60.0204 29.985C60.0204 29.885 60.0204 29.835 60.0204 29.835C60.0704 29.785 60.0954 29.71 60.0954 29.61C59.8954 28.46 59.8204 27.335 59.8704 26.235C59.9704 25.135 59.9704 24.06 59.8704 23.01C59.9204 22.66 59.9454 22.335 59.9454 22.035C59.9454 21.735 59.9454 21.435 59.9454 21.135L59.7954 17.235L60.0204 7.93498C60.0204 7.53498 59.9954 7.15998 59.9454 6.80998C59.9454 6.40998 59.9204 6.00998 59.8704 5.60998L60.3204 4.93498C60.5704 4.93498 60.9954 4.93498 61.5954 4.93498C62.1954 4.88498 62.8954 4.88498 63.6954 4.93498C64.3454 4.93498 64.8204 4.90998 65.1204 4.85998C65.4704 4.75998 65.8454 4.70998 66.2454 4.70998C66.4954 4.70998 66.6954 4.75998 66.8454 4.85998C67.0454 4.90998 67.2954 4.93498 67.5954 4.93498H69.1704C69.3204 5.33498 69.5204 5.75998 69.7704 6.20998C70.0704 6.65998 70.3454 7.13498 70.5954 7.63498C71.1454 8.73498 71.5454 9.68498 71.7954 10.485C72.0954 11.235 72.3704 11.785 72.6204 12.135C72.8204 12.385 73.0704 12.735 73.3704 13.185C73.6704 13.635 73.9704 14.11 74.2704 14.61C74.5704 15.11 74.8454 15.635 75.0954 16.185C75.3954 16.685 75.6704 17.135 75.9204 17.535ZM116.141 40.635C116.391 40.535 116.716 40.435 117.116 40.335C117.516 40.235 117.916 40.06 118.316 39.81C118.316 39.16 118.341 38.585 118.391 38.085C118.441 37.585 118.466 37.06 118.466 36.51C118.466 36.26 118.441 36.035 118.391 35.835C118.391 35.585 118.391 35.335 118.391 35.085C118.391 34.785 118.366 34.51 118.316 34.26C118.316 34.01 118.316 33.735 118.316 33.435C118.316 32.935 118.316 32.41 118.316 31.86C118.316 31.31 118.216 30.835 118.016 30.435H113.141L112.991 29.01L112.766 27.735C112.766 27.635 112.766 27.535 112.766 27.435C112.766 27.335 112.791 27.235 112.841 27.135C113.191 27.185 113.616 27.21 114.116 27.21C114.616 27.16 115.091 27.11 115.541 27.06C115.641 27.06 115.916 27.06 116.366 27.06C116.866 27.06 117.366 27.085 117.866 27.135C118.416 27.135 118.916 27.16 119.366 27.21C119.816 27.21 120.091 27.21 120.191 27.21H121.091C121.641 27.31 122.116 27.335 122.516 27.285C122.966 27.185 123.516 27.135 124.166 27.135C124.416 27.085 124.691 27.085 124.991 27.135C125.341 27.185 125.641 27.185 125.891 27.135C126.091 27.135 126.216 27.16 126.266 27.21C126.316 27.21 126.466 27.335 126.716 27.585C126.666 27.985 126.641 28.385 126.641 28.785C126.641 29.135 126.641 29.51 126.641 29.91C126.691 30.46 126.716 31.01 126.716 31.56C126.766 32.06 126.766 32.585 126.716 33.135C126.666 33.835 126.641 34.535 126.641 35.235C126.641 35.935 126.641 36.635 126.641 37.335C126.641 38.085 126.641 38.785 126.641 39.435C126.641 40.085 126.666 40.785 126.716 41.535V45.06C126.666 45.71 126.666 46.26 126.716 46.71C126.766 47.21 126.716 47.485 126.566 47.535C126.166 47.785 125.591 47.885 124.841 47.835C124.141 47.835 123.516 47.835 122.966 47.835H118.691C118.691 47.485 118.691 47.035 118.691 46.485C118.741 45.935 118.741 45.535 118.691 45.285H118.316C117.216 45.485 116.141 45.685 115.091 45.885C114.041 46.135 112.966 46.385 111.866 46.635C111.616 46.685 111.391 46.71 111.191 46.71C110.991 46.76 110.766 46.785 110.516 46.785C109.866 46.785 109.241 46.76 108.641 46.71C108.041 46.71 107.466 46.71 106.916 46.71C106.216 46.66 105.441 46.585 104.591 46.485C103.791 46.385 103.216 46.26 102.866 46.11C102.266 45.91 101.441 45.56 100.391 45.06C99.3909 44.61 98.5409 44.26 97.8409 44.01C97.4409 43.61 97.0409 43.285 96.6409 43.035C96.2409 42.735 95.8409 42.36 95.4409 41.91C95.1909 41.66 94.9409 41.435 94.6909 41.235C94.4909 41.035 94.2909 40.835 94.0909 40.635C93.2409 39.785 92.5159 38.835 91.9159 37.785C91.3659 36.735 90.7909 35.735 90.1909 34.785C90.0909 34.135 89.8659 33.56 89.5159 33.06C89.2159 32.56 89.0659 31.985 89.0659 31.335C89.0659 30.635 88.9909 29.985 88.8409 29.385C88.6909 28.735 88.6159 28.135 88.6159 27.585C88.6159 27.235 88.6409 26.76 88.6909 26.16C88.7409 25.56 88.7909 24.935 88.8409 24.285C88.9409 23.635 89.0409 23.035 89.1409 22.485C89.2409 21.935 89.3409 21.51 89.4409 21.21C89.4409 20.76 89.5159 20.235 89.6659 19.635C89.8159 19.035 89.9909 18.535 90.1909 18.135C90.4409 17.535 90.7659 16.835 91.1659 16.035C91.5659 15.235 91.9659 14.535 92.3659 13.935C92.6159 13.535 92.8409 13.235 93.0409 13.035C93.2409 12.785 93.4409 12.535 93.6409 12.285C94.0409 11.585 94.5409 10.96 95.1409 10.41C95.7909 9.80998 96.4159 9.30998 97.0159 8.90998C98.0159 8.25998 98.9909 7.58498 99.9409 6.88498C100.891 6.18498 101.791 5.70998 102.641 5.45998C103.291 5.05998 103.966 4.73498 104.666 4.48498C105.416 4.23498 106.141 3.98498 106.841 3.73498C107.841 3.33498 108.816 3.08498 109.766 2.98498C110.716 2.88498 111.691 2.70998 112.691 2.45998H114.491C114.691 2.45998 114.966 2.45998 115.316 2.45998C115.716 2.40998 116.116 2.28498 116.516 2.08498H117.491C117.891 2.08498 118.166 2.10998 118.316 2.15998C118.516 2.15998 118.916 2.25998 119.516 2.45998C119.716 2.70998 119.766 3.03498 119.666 3.43498C119.566 3.78498 119.516 4.18498 119.516 4.63498V6.73499C119.116 6.68498 118.616 6.70998 118.016 6.80998C117.466 6.90998 116.891 7.03498 116.291 7.18498C115.741 7.28498 115.166 7.43498 114.566 7.63498C114.016 7.78498 113.541 7.90998 113.141 8.00998C112.491 8.25998 111.766 8.58498 110.966 8.98498C110.216 9.33498 109.391 9.70998 108.491 10.11C108.441 10.11 108.191 10.31 107.741 10.71C107.341 11.06 106.866 11.46 106.316 11.91C105.816 12.36 105.341 12.785 104.891 13.185C104.491 13.585 104.266 13.835 104.216 13.935C103.266 15.035 102.541 16.16 102.041 17.31C101.591 18.46 101.066 19.61 100.466 20.76C100.216 21.56 100.066 22.41 100.016 23.31C99.9659 24.21 99.8409 25.16 99.6409 26.16V28.41C99.8409 29.21 100.041 29.96 100.241 30.66C100.441 31.36 100.641 32.135 100.841 32.985C101.141 33.885 101.541 34.66 102.041 35.31C102.591 35.96 103.216 36.635 103.916 37.335C104.166 37.585 104.641 38.01 105.341 38.61C106.091 39.16 106.791 39.56 107.441 39.81C107.991 40.01 108.541 40.16 109.091 40.26C109.641 40.36 110.216 40.535 110.816 40.785C111.066 40.885 111.291 40.96 111.491 41.01C111.691 41.06 111.891 41.085 112.091 41.085C112.791 41.085 113.441 41.035 114.041 40.935C114.691 40.835 115.391 40.735 116.141 40.635ZM144.619 28.71C144.369 28.36 144.094 27.985 143.794 27.585C143.544 27.185 143.244 26.735 142.894 26.235C142.194 25.285 141.569 24.385 141.019 23.535C140.519 22.635 140.144 22.06 139.894 21.81L137.794 19.41C137.644 19.21 137.469 18.935 137.269 18.585C137.069 18.235 136.919 17.985 136.819 17.835C136.569 17.485 136.319 17.135 136.069 16.785C135.869 16.385 135.644 16.035 135.394 15.735C135.094 15.335 134.719 14.835 134.269 14.235C133.869 13.635 133.644 13.335 133.594 13.335L133.669 16.71L133.144 22.785C133.144 23.035 133.119 23.585 133.069 24.435C133.069 25.235 133.044 26.11 132.994 27.06C132.944 28.01 132.894 28.91 132.844 29.76C132.844 30.56 132.844 31.085 132.844 31.335C132.794 32.385 132.719 33.31 132.619 34.11C132.519 34.91 132.494 35.835 132.544 36.885C132.544 37.385 132.494 37.86 132.394 38.31C132.344 38.71 132.344 39.16 132.394 39.66C132.394 39.91 132.394 40.16 132.394 40.41C132.394 40.61 132.369 40.835 132.319 41.085C132.369 41.785 132.369 42.51 132.319 43.26C132.269 43.96 132.244 44.66 132.244 45.36C131.644 45.61 131.094 45.76 130.594 45.81C130.144 45.86 129.569 45.885 128.869 45.885C128.669 45.935 128.394 45.96 128.044 45.96C127.744 46.01 127.444 46.035 127.144 46.035C126.844 46.085 126.594 46.11 126.394 46.11C126.194 46.16 126.119 46.185 126.169 46.185C125.919 46.185 125.619 46.21 125.269 46.26C124.969 46.31 124.619 46.335 124.219 46.335C124.019 46.335 123.819 46.31 123.619 46.26C123.419 46.26 123.219 46.135 123.019 45.885L123.319 43.56V43.11C123.269 42.36 123.219 41.635 123.169 40.935C123.119 40.185 123.144 39.535 123.244 38.985C123.294 38.685 123.319 38.285 123.319 37.785C123.369 37.285 123.394 36.76 123.394 36.21C123.394 35.66 123.394 35.135 123.394 34.635C123.394 34.085 123.369 33.61 123.319 33.21C123.219 32.41 123.144 31.735 123.094 31.185C123.094 30.585 123.094 29.635 123.094 28.335C123.144 27.285 123.169 26.46 123.169 25.86C123.169 25.26 123.144 24.435 123.094 23.385V22.71C123.094 22.01 123.044 21.385 122.944 20.835C122.894 20.285 122.894 19.81 122.944 19.41C123.144 18.36 123.194 17.335 123.094 16.335C123.044 15.285 123.069 14.185 123.169 13.035C123.219 12.185 123.219 11.36 123.169 10.56C123.169 9.75998 123.169 8.93498 123.169 8.08498C123.169 7.23498 123.194 6.38498 123.244 5.53498C123.344 4.68498 123.394 3.83498 123.394 2.98498C123.394 2.58498 123.419 2.35998 123.469 2.30998C123.569 2.20998 123.819 2.15998 124.219 2.15998H131.944C132.194 2.40998 132.494 2.83498 132.844 3.43498C133.194 3.98498 133.494 4.43498 133.744 4.78498C134.144 5.28498 134.519 5.85998 134.869 6.50998C135.269 7.15998 135.619 7.73498 135.919 8.23498C136.319 9.08498 136.744 9.73498 137.194 10.185C137.644 10.635 138.019 11.235 138.319 11.985C138.569 12.235 138.769 12.535 138.919 12.885C139.119 13.185 139.319 13.435 139.519 13.635C139.769 14.035 140.094 14.535 140.494 15.135C140.894 15.735 141.294 16.235 141.694 16.635C142.344 17.485 142.894 18.26 143.344 18.96C143.844 19.66 144.444 20.41 145.144 21.21C145.544 21.76 145.894 22.26 146.194 22.71C146.494 23.16 146.819 23.66 147.169 24.21C147.569 24.66 147.994 25.185 148.444 25.785C148.944 26.335 149.494 26.96 150.094 27.66C150.194 27.61 150.369 27.435 150.619 27.135C150.919 26.785 151.144 26.485 151.294 26.235C151.744 25.785 152.194 25.21 152.644 24.51C153.144 23.81 153.619 23.185 154.069 22.635L154.819 21.135C154.919 20.935 155.044 20.76 155.194 20.61C155.344 20.41 155.469 20.235 155.569 20.085L157.594 17.01C157.794 16.51 158.194 15.885 158.794 15.135C159.444 14.385 160.069 13.485 160.669 12.435L161.044 11.985C161.544 11.135 161.994 10.335 162.394 9.58498C162.794 8.78498 163.194 7.95998 163.594 7.10999C163.894 6.45998 164.194 5.95998 164.494 5.60998C164.844 5.20998 165.194 4.68499 165.544 4.03498C165.744 3.63498 165.844 3.38498 165.844 3.28499C165.894 3.13498 165.994 2.90998 166.144 2.60999H172.969C173.819 2.80998 174.419 2.90998 174.769 2.90998C175.119 2.90998 175.369 2.90998 175.519 2.90998C175.769 2.90998 175.994 2.93498 176.194 2.98498C176.444 2.98498 176.769 2.98498 177.169 2.98498V6.05999C176.969 6.90998 176.844 7.65998 176.794 8.30998C176.794 8.95998 176.794 9.60998 176.794 10.26V17.835C176.794 18.735 176.819 19.61 176.869 20.46C176.919 21.26 176.944 22.135 176.944 23.085C176.994 23.335 177.019 23.61 177.019 23.91C177.019 24.16 177.019 24.435 177.019 24.735C177.069 25.285 177.069 25.685 177.019 25.935C177.019 26.185 177.044 26.585 177.094 27.135V28.11C177.044 28.41 176.994 28.935 176.944 29.685C176.894 30.385 176.844 31.135 176.794 31.935C176.744 32.685 176.694 33.435 176.644 34.185C176.644 34.885 176.644 35.385 176.644 35.685C176.644 36.085 176.669 36.585 176.719 37.185C176.769 37.785 176.794 38.285 176.794 38.685C176.794 39.685 176.769 40.735 176.719 41.835C176.719 42.885 176.594 43.935 176.344 44.985V46.71C176.144 46.96 175.869 47.085 175.519 47.085C175.219 47.135 174.944 47.16 174.694 47.16C174.244 47.06 173.769 47.035 173.269 47.085C172.819 47.135 172.494 47.16 172.294 47.16H166.519C166.419 46.46 166.344 45.76 166.294 45.06C166.244 44.36 166.219 43.685 166.219 43.035C166.219 42.735 166.219 42.31 166.219 41.76C166.269 41.21 166.294 40.635 166.294 40.035C166.294 39.385 166.294 38.785 166.294 38.235C166.294 37.685 166.269 37.26 166.219 36.96C166.219 36.61 166.244 36.085 166.294 35.385C166.344 34.635 166.369 34.085 166.369 33.735L166.294 31.185C166.294 30.685 166.269 30.285 166.219 29.985C166.219 29.635 166.219 29.335 166.219 29.085L166.069 27.66C166.069 27.56 166.069 27.435 166.069 27.285C166.119 27.085 166.144 26.935 166.144 26.835C165.944 25.685 165.919 24.56 166.069 23.46C166.269 22.36 166.319 21.285 166.219 20.235C166.269 19.885 166.294 19.56 166.294 19.26C166.294 18.96 166.294 18.66 166.294 18.36L166.144 14.46V13.635C165.944 13.535 165.844 13.485 165.844 13.485C165.794 13.535 165.769 13.585 165.769 13.635C165.119 14.235 164.544 14.885 164.044 15.585C163.544 16.235 163.044 16.985 162.544 17.835L160.219 21.51C159.969 21.96 159.669 22.485 159.319 23.085C158.969 23.635 158.619 24.21 158.269 24.81C157.919 25.41 157.569 25.985 157.219 26.535C156.919 27.035 156.619 27.46 156.319 27.81C156.169 28.01 155.944 28.31 155.644 28.71C155.394 29.11 155.094 29.56 154.744 30.06C154.444 30.51 154.119 30.985 153.769 31.485C153.469 31.985 153.169 32.435 152.869 32.835L152.569 33.285C152.319 33.385 151.969 33.435 151.519 33.435C151.119 33.385 150.794 33.36 150.544 33.36C150.094 33.36 149.644 33.385 149.194 33.435C148.744 33.435 148.294 33.435 147.844 33.435C147.444 33.035 147.044 32.485 146.644 31.785C146.244 31.085 145.894 30.535 145.594 30.135L144.619 28.71ZM175.951 36.06C176.301 35.06 176.651 34.085 177.001 33.135C177.401 32.135 177.776 31.135 178.126 30.135C178.376 29.385 178.701 28.635 179.101 27.885C179.501 27.135 179.851 26.46 180.151 25.86C180.401 25.01 180.651 24.335 180.901 23.835C181.201 23.285 181.376 22.935 181.426 22.785C181.426 22.685 181.526 22.435 181.726 22.035C181.976 21.635 182.251 20.985 182.551 20.085C182.701 19.635 182.826 19.16 182.926 18.66C183.076 18.16 183.251 17.685 183.451 17.235L185.251 12.885C185.451 12.335 185.576 11.935 185.626 11.685C185.726 11.385 185.801 11.135 185.851 10.935C185.901 10.735 185.951 10.51 186.001 10.26C186.051 10.01 186.201 9.60998 186.451 9.05998C186.701 8.50998 186.901 7.98498 187.051 7.48498C187.251 6.98498 187.476 6.45998 187.726 5.90998C187.826 5.60998 187.926 5.30998 188.026 5.00999C188.126 4.70998 188.226 4.40998 188.326 4.10998C188.476 3.70998 188.601 3.35998 188.701 3.05998C188.801 2.75998 188.901 2.40998 189.001 2.00998C189.101 1.90998 189.176 1.78498 189.226 1.63498C189.276 1.43498 189.376 1.20998 189.526 0.959984C189.826 0.759984 190.076 0.659983 190.276 0.659983C190.476 0.609984 190.676 0.584984 190.876 0.584984H194.326C194.426 0.784985 194.476 0.984984 194.476 1.18498C194.476 1.33498 194.526 1.50998 194.626 1.70998L194.926 2.83498L195.151 3.43498L195.976 5.75998L197.326 9.58498L197.851 10.56C197.951 10.66 198.051 10.885 198.151 11.235C198.251 11.535 198.401 11.935 198.601 12.435C198.851 13.085 199.101 13.835 199.351 14.685C199.651 15.485 199.926 16.285 200.176 17.085C200.526 18.335 200.801 19.26 201.001 19.86C201.251 20.46 201.501 21.085 201.751 21.735C201.901 21.935 202.001 22.16 202.051 22.41C202.101 22.66 202.176 22.91 202.276 23.16L203.251 26.235L204.526 28.935C204.676 29.385 204.826 29.835 204.976 30.285C205.176 30.685 205.401 31.085 205.651 31.485C206.051 32.485 206.376 33.41 206.626 34.26C206.876 35.06 207.201 35.96 207.601 36.96C207.801 37.41 208.001 37.835 208.201 38.235C208.451 38.635 208.651 39.06 208.801 39.51C208.901 39.76 209.001 40.01 209.101 40.26C209.201 40.51 209.301 40.76 209.401 41.01C209.651 41.46 209.851 41.935 210.001 42.435C210.201 42.885 210.426 43.385 210.676 43.935C210.776 44.235 210.901 44.535 211.051 44.835C211.201 45.135 211.301 45.41 211.351 45.66C211.101 45.66 210.851 45.635 210.601 45.585C210.351 45.535 210.126 45.51 209.926 45.51H208.651C208.201 45.51 207.801 45.51 207.451 45.51C207.101 45.56 206.801 45.585 206.551 45.585C206.301 44.985 205.926 44.41 205.426 43.86C204.976 43.26 204.501 42.535 204.001 41.685C203.901 41.435 203.801 41.21 203.701 41.01C203.601 40.81 203.501 40.61 203.401 40.41C203.301 40.11 203.001 39.685 202.501 39.135C202.051 38.585 201.801 38.16 201.751 37.86C201.351 37.41 201.051 37.06 200.851 36.81C200.701 36.51 200.501 36.235 200.251 35.985C200.051 35.985 199.801 35.985 199.501 35.985C199.201 35.935 198.926 35.885 198.676 35.835C198.376 35.785 198.051 35.76 197.701 35.76H195.901C195.651 35.76 195.376 35.785 195.076 35.835C194.826 35.835 194.426 35.86 193.876 35.91C193.326 35.91 192.576 35.935 191.626 35.985C190.676 35.985 189.401 35.985 187.801 35.985H187.276C186.876 35.985 186.551 36.035 186.301 36.135C186.101 36.185 185.801 36.135 185.401 35.985C185.251 35.885 184.876 35.86 184.276 35.91C183.726 35.96 183.351 36.01 183.151 36.06L182.176 36.135L181.801 36.66C181.701 36.96 181.526 37.31 181.276 37.71C181.026 38.11 180.776 38.51 180.526 38.91C180.276 39.31 180.026 39.71 179.776 40.11C179.576 40.51 179.426 40.835 179.326 41.085L178.801 42.435L176.926 45.885C176.826 46.085 176.676 46.185 176.476 46.185C176.276 46.185 176.126 46.235 176.026 46.335H172.201C172.001 46.135 171.901 46.01 171.901 45.96C171.901 45.91 172.001 45.76 172.201 45.51C172.201 45.31 172.276 45.01 172.426 44.61C172.576 44.26 172.651 43.985 172.651 43.785C172.901 43.385 173.101 42.985 173.251 42.585C173.451 42.135 173.651 41.71 173.851 41.31L175.951 36.06ZM191.701 17.46C191.451 17.56 191.276 17.685 191.176 17.835C191.076 17.985 190.976 18.16 190.876 18.36C190.676 19.06 190.401 19.76 190.051 20.46C189.751 21.11 189.451 21.785 189.151 22.485C188.901 22.985 188.651 23.46 188.401 23.91C188.151 24.31 187.926 24.76 187.726 25.26C187.276 26.26 186.826 27.26 186.376 28.26C185.926 29.21 185.426 30.16 184.876 31.11H185.326C185.726 31.11 186.076 31.135 186.376 31.185C186.726 31.235 187.076 31.21 187.426 31.11C187.726 31.01 188.001 30.985 188.251 31.035C188.551 31.085 188.826 31.11 189.076 31.11C189.926 31.11 190.801 31.11 191.701 31.11C192.601 31.06 193.601 31.085 194.701 31.185C195.251 31.235 195.751 31.235 196.201 31.185C196.701 31.135 197.201 31.11 197.701 31.11H198.376C198.326 30.91 198.251 30.76 198.151 30.66C198.101 30.51 198.026 30.36 197.926 30.21C197.726 29.81 197.501 29.46 197.251 29.16C197.051 28.86 196.876 28.485 196.726 28.035L194.101 22.785C194.001 22.535 193.901 22.21 193.801 21.81L191.701 17.46ZM222.293 17.535C223.293 19.235 224.343 21.035 225.443 22.935C226.593 24.835 227.818 26.835 229.118 28.935C229.368 29.635 229.668 30.285 230.018 30.885C230.418 31.435 230.818 31.91 231.218 32.31C231.418 32.71 231.668 33.21 231.968 33.81C232.268 34.36 232.568 34.835 232.868 35.235L233.018 34.935V31.11C233.018 31.01 233.018 30.96 233.018 30.96C233.068 30.91 233.093 30.835 233.093 30.735C232.893 29.585 232.843 28.56 232.943 27.66C233.093 26.71 233.118 25.71 233.018 24.66C233.068 24.31 233.093 23.985 233.093 23.685C233.093 23.385 233.093 23.085 233.093 22.785L232.943 18.885V9.58498C232.943 9.38498 232.943 9.00998 232.943 8.45998C232.993 7.90998 233.018 7.30998 233.018 6.65998C233.018 5.95998 233.018 5.28498 233.018 4.63498C233.018 3.98498 233.018 3.48498 233.018 3.13498C233.018 2.93498 233.043 2.75998 233.093 2.60999C233.193 2.40998 233.443 2.30998 233.843 2.30998H236.318C236.768 2.30998 237.293 2.38498 237.893 2.53498C238.493 2.68498 238.893 2.75998 239.093 2.75998H239.468C239.468 4.45998 239.468 6.20998 239.468 8.00998C239.518 9.75998 239.543 11.435 239.543 13.035C239.593 14.585 239.643 16.035 239.693 17.385C239.743 18.685 239.793 19.735 239.843 20.535C239.793 20.935 239.768 21.335 239.768 21.735C239.818 22.085 239.818 22.46 239.768 22.86C239.718 23.41 239.693 23.96 239.693 24.51C239.743 25.06 239.768 25.61 239.768 26.16V29.76C239.818 31.11 239.793 32.185 239.693 32.985C239.643 33.785 239.618 34.26 239.618 34.41C239.568 35.11 239.543 35.81 239.543 36.51C239.543 37.21 239.543 37.91 239.543 38.61C239.593 39.56 239.593 40.51 239.543 41.46C239.493 42.36 239.493 43.285 239.543 44.235C239.543 44.635 239.543 45.01 239.543 45.36C239.543 45.71 239.568 46.085 239.618 46.485C239.618 46.735 239.343 46.86 238.793 46.86H236.318C235.718 46.96 235.243 46.985 234.893 46.935C234.543 46.885 234.293 46.86 234.143 46.86C233.893 46.21 233.668 45.66 233.468 45.21C233.268 44.81 233.043 44.41 232.793 44.01C232.593 43.61 232.368 43.21 232.118 42.81C231.868 42.36 231.568 41.835 231.218 41.235C231.068 40.985 230.868 40.66 230.618 40.26C230.368 39.81 230.143 39.46 229.943 39.21C229.643 38.86 229.393 38.46 229.193 38.01C228.993 37.51 228.668 37.06 228.218 36.66C227.568 35.66 226.943 34.635 226.343 33.585C225.743 32.485 225.093 31.385 224.393 30.285C223.693 29.235 222.893 28.16 221.993 27.06C221.093 25.91 220.193 24.635 219.293 23.235C218.893 22.285 218.293 21.31 217.493 20.31C216.743 19.31 216.093 18.36 215.543 17.46C215.543 17.36 215.518 17.56 215.468 18.06C215.468 18.56 215.468 19.135 215.468 19.785C215.468 20.385 215.443 20.96 215.393 21.51C215.393 22.01 215.393 22.26 215.393 22.26V22.86C215.443 23.26 215.443 23.66 215.393 24.06C215.343 24.41 215.318 24.785 215.318 25.185L215.168 34.485L215.318 38.385C215.318 38.685 215.318 38.985 215.318 39.285C215.368 39.585 215.368 39.91 215.318 40.26C215.418 40.96 215.443 41.71 215.393 42.51C215.343 43.26 215.343 44.01 215.393 44.76C215.443 45.46 215.418 45.96 215.318 46.26C215.268 46.56 215.193 46.76 215.093 46.86H209.168C208.768 46.86 208.343 46.86 207.893 46.86C207.493 46.91 207.093 46.91 206.693 46.86C206.643 46.86 206.593 46.635 206.543 46.185C206.543 45.785 206.543 45.285 206.543 44.685C206.543 44.135 206.543 43.56 206.543 42.96C206.543 42.36 206.543 41.91 206.543 41.61C206.543 40.91 206.543 40.21 206.543 39.51C206.593 38.76 206.593 38.035 206.543 37.335C206.543 36.635 206.568 35.96 206.618 35.31C206.668 34.61 206.668 33.91 206.618 33.21C206.618 32.71 206.593 32.31 206.543 32.01C206.543 31.66 206.543 31.36 206.543 31.11L206.393 29.985C206.393 29.885 206.393 29.835 206.393 29.835C206.443 29.785 206.468 29.71 206.468 29.61C206.268 28.46 206.193 27.335 206.243 26.235C206.343 25.135 206.343 24.06 206.243 23.01C206.293 22.66 206.318 22.335 206.318 22.035C206.318 21.735 206.318 21.435 206.318 21.135L206.168 17.235L206.393 7.93498C206.393 7.53498 206.368 7.15998 206.318 6.80998C206.318 6.40998 206.293 6.00998 206.243 5.60998L206.693 4.93498C206.943 4.93498 207.368 4.93498 207.968 4.93498C208.568 4.88498 209.268 4.88498 210.068 4.93498C210.718 4.93498 211.193 4.90998 211.493 4.85998C211.843 4.75998 212.218 4.70998 212.618 4.70998C212.868 4.70998 213.068 4.75998 213.218 4.85998C213.418 4.90998 213.668 4.93498 213.968 4.93498H215.543C215.693 5.33498 215.893 5.75998 216.143 6.20998C216.443 6.65998 216.718 7.13498 216.968 7.63498C217.518 8.73498 217.918 9.68498 218.168 10.485C218.468 11.235 218.743 11.785 218.993 12.135C219.193 12.385 219.443 12.735 219.743 13.185C220.043 13.635 220.343 14.11 220.643 14.61C220.943 15.11 221.218 15.635 221.468 16.185C221.768 16.685 222.043 17.135 222.293 17.535Z" fill="white"/>
</svg>
