<svg width="15" height="20" viewBox="0 0 15 20" fill="none" xmlns="http://www.w3.org/2000/svg">
<path d="M0.109529 18.876L0.109529 1.62598C0.110076 1.45134 0.158244 1.28015 0.248849 1.13084C0.339453 0.98153 0.469061 0.859759 0.623724 0.778632C0.778387 0.697505 0.952249 0.660096 1.12659 0.67043C1.30093 0.680762 1.46916 0.738448 1.61315 0.837277L14.0715 9.46228C14.588 9.81974 14.588 10.6803 14.0715 11.0387L1.61315 19.6637C1.46946 19.7636 1.30115 19.8221 1.12652 19.833C0.951884 19.8439 0.777604 19.8067 0.622614 19.7255C0.467623 19.6443 0.337849 19.5222 0.247391 19.3724C0.156934 19.2227 0.109254 19.051 0.109529 18.876Z" fill="#16535D"/>
</svg>
