<svg width="628" height="663" viewBox="0 0 628 663" fill="none" xmlns="http://www.w3.org/2000/svg">
<g clip-path="url(#clip0_21_4)">
<rect width="628" height="663" fill="#16535D"/>
<line opacity="0.95" x1="322.5" y1="-40" x2="322.5" y2="63.61" stroke="white" stroke-width="8"/>
<g opacity="0.95">
<circle cx="323.032" cy="99.0646" r="34.4547" fill="white" stroke="white" stroke-width="4"/>
<line x1="326.407" y1="133.819" x2="326.407" y2="244.866" stroke="white" stroke-width="6"/>
<line x1="326.316" y1="243.06" x2="275.986" y2="328.43" stroke="white" stroke-width="6"/>
<line x1="326.51" y1="156.39" x2="291.72" y2="229.532" stroke="white" stroke-width="6"/>
<line y1="-3" x2="80.9945" y2="-3" transform="matrix(0.429537 0.903049 0.903049 -0.429537 328.808 155.102)" stroke="white" stroke-width="6"/>
</g>
<g filter="url(#filter0_d_21_4)">
<rect x="48.835" y="477.251" width="44.933" height="44.933" rx="10" fill="#336067"/>
<path d="M70.1083 503.036H72.5231L74.5473 505.699L75.0799 506.409L78.0984 510.422H75.6836L73.695 507.759L73.1978 507.084L70.1083 503.036ZM78.8441 499.627C78.8441 501.544 78.4979 503.201 77.8054 504.598C77.1129 505.995 76.163 507.072 74.9556 507.83C73.7482 508.587 72.3692 508.966 70.8186 508.966C69.2679 508.966 67.8889 508.587 66.6815 507.83C65.4741 507.072 64.5242 505.995 63.8317 504.598C63.1392 503.201 62.793 501.544 62.793 499.627C62.793 497.709 63.1392 496.052 63.8317 494.655C64.5242 493.258 65.4741 492.181 66.6815 491.423C67.8889 490.666 69.2679 490.287 70.8186 490.287C72.3692 490.287 73.7482 490.666 74.9556 491.423C76.163 492.181 77.1129 493.258 77.8054 494.655C78.4979 496.052 78.8441 497.709 78.8441 499.627ZM76.7134 499.627C76.7134 498.052 76.4501 496.724 75.9233 495.64C75.4025 494.557 74.6952 493.738 73.8015 493.181C72.9137 492.625 71.9194 492.347 70.8186 492.347C69.7177 492.347 68.7204 492.625 67.8267 493.181C66.9389 493.738 66.2317 494.557 65.7049 495.64C65.1841 496.724 64.9237 498.052 64.9237 499.627C64.9237 501.201 65.1841 502.53 65.7049 503.613C66.2317 504.696 66.9389 505.516 67.8267 506.072C68.7204 506.628 69.7177 506.906 70.8186 506.906C71.9194 506.906 72.9137 506.628 73.8015 506.072C74.6952 505.516 75.4025 504.696 75.9233 503.613C76.4501 502.53 76.7134 501.201 76.7134 499.627Z" fill="white"/>
<rect x="103.768" y="477.251" width="44.933" height="44.933" rx="10" fill="#336067"/>
<path d="M119.739 508.718L114.767 490.536H117.004L120.804 505.344H120.982L124.852 490.536H127.338L131.209 505.344H131.386L135.186 490.536H137.423L132.452 508.718H130.179L126.166 494.229H126.024L122.011 508.718H119.739Z" fill="white"/>
<rect x="158.701" y="477.251" width="44.933" height="44.933" rx="10" fill="#336067"/>
<path d="M175.869 508.718V490.536H186.842V492.489H178.071V498.632H186.274V500.585H178.071V506.764H186.984V508.718H175.869Z" fill="white"/>
<rect x="213.634" y="477.251" width="44.933" height="44.933" rx="10" fill="#336067"/>
<path d="M230.302 508.718V490.536H236.446C237.866 490.536 239.032 490.778 239.944 491.264C240.855 491.743 241.53 492.403 241.968 493.243C242.406 494.084 242.625 495.04 242.625 496.111C242.625 497.182 242.406 498.132 241.968 498.961C241.53 499.789 240.858 500.44 239.952 500.914C239.047 501.381 237.89 501.615 236.481 501.615H231.51V499.627H236.41C237.381 499.627 238.162 499.485 238.754 499.2C239.352 498.916 239.784 498.514 240.05 497.993C240.322 497.466 240.458 496.839 240.458 496.111C240.458 495.383 240.322 494.747 240.05 494.202C239.778 493.658 239.343 493.238 238.745 492.942C238.147 492.64 237.357 492.489 236.375 492.489H232.504V508.718H230.302ZM238.86 500.55L243.335 508.718H240.778L236.375 500.55H238.86Z" fill="white"/>
<rect x="268.567" y="477.251" width="44.933" height="44.933" rx="10" fill="#336067"/>
<path d="M283.741 492.489V490.536H297.377V492.489H291.66V508.718H289.458V492.489H283.741Z" fill="white"/>
<rect x="323.5" y="477.251" width="44.933" height="44.933" rx="10" fill="#336067"/>
<path d="M338.106 490.536H340.627L345.67 499.023H345.883L350.925 490.536H353.447L346.877 501.225V508.718H344.675V501.225L338.106 490.536Z" fill="white"/>
<rect x="378.433" y="477.251" width="44.933" height="44.933" rx="10" fill="#336067"/>
<path d="M405.533 490.536H407.735V502.574C407.735 503.817 407.442 504.927 406.856 505.903C406.276 506.874 405.456 507.64 404.397 508.203C403.337 508.759 402.094 509.037 400.668 509.037C399.242 509.037 397.999 508.759 396.939 508.203C395.88 507.64 395.057 506.874 394.471 505.903C393.891 504.927 393.601 503.817 393.601 502.574V490.536H395.803V502.397C395.803 503.284 395.998 504.074 396.389 504.767C396.779 505.453 397.336 505.995 398.058 506.392C398.786 506.782 399.656 506.977 400.668 506.977C401.68 506.977 402.55 506.782 403.278 506.392C404.006 505.995 404.562 505.453 404.947 504.767C405.338 504.074 405.533 503.284 405.533 502.397V490.536Z" fill="white"/>
<g filter="url(#filter1_d_21_4)">
<rect x="433.366" y="477.251" width="44.933" height="44.933" rx="10" fill="#16535D"/>
</g>
<path d="M456.736 490.536V508.718H454.534V490.536H456.736Z" fill="white"/>
<rect x="488.299" y="477.251" width="44.933" height="44.933" rx="10" fill="#336067"/>
<path d="M518.308 499.627C518.308 501.544 517.962 503.201 517.269 504.598C516.577 505.995 515.627 507.072 514.42 507.83C513.212 508.587 511.833 508.966 510.282 508.966C508.732 508.966 507.353 508.587 506.145 507.83C504.938 507.072 503.988 505.995 503.296 504.598C502.603 503.201 502.257 501.544 502.257 499.627C502.257 497.709 502.603 496.052 503.296 494.655C503.988 493.258 504.938 492.181 506.145 491.423C507.353 490.666 508.732 490.287 510.282 490.287C511.833 490.287 513.212 490.666 514.42 491.423C515.627 492.181 516.577 493.258 517.269 494.655C517.962 496.052 518.308 497.709 518.308 499.627ZM516.177 499.627C516.177 498.052 515.914 496.724 515.387 495.64C514.866 494.557 514.159 493.738 513.265 493.181C512.378 492.625 511.383 492.347 510.282 492.347C509.182 492.347 508.184 492.625 507.291 493.181C506.403 493.738 505.696 494.557 505.169 495.64C504.648 496.724 504.388 498.052 504.388 499.627C504.388 501.201 504.648 502.53 505.169 503.613C505.696 504.696 506.403 505.516 507.291 506.072C508.184 506.628 509.182 506.906 510.282 506.906C511.383 506.906 512.378 506.628 513.265 506.072C514.159 505.516 514.866 504.696 515.387 503.613C515.914 502.53 516.177 501.201 516.177 499.627Z" fill="white"/>
<rect x="543.232" y="477.251" width="44.933" height="44.933" rx="10" fill="#336067"/>
<path d="M559.9 508.718V490.536H566.044C567.47 490.536 568.636 490.793 569.541 491.308C570.453 491.817 571.128 492.507 571.566 493.377C572.004 494.247 572.223 495.217 572.223 496.289C572.223 497.36 572.004 498.333 571.566 499.209C571.133 500.085 570.465 500.784 569.559 501.305C568.654 501.819 567.494 502.077 566.079 502.077H561.676V500.124H566.008C566.985 500.124 567.769 499.955 568.361 499.618C568.953 499.28 569.382 498.825 569.648 498.251C569.92 497.671 570.056 497.017 570.056 496.289C570.056 495.561 569.92 494.91 569.648 494.335C569.382 493.761 568.95 493.312 568.352 492.986C567.754 492.655 566.961 492.489 565.973 492.489H562.102V508.718H559.9Z" fill="white"/>
<g filter="url(#filter2_d_21_4)">
<rect x="76.3015" y="532.184" width="44.933" height="44.933" rx="10" fill="#16535D"/>
</g>
<path d="M93.2155 563.65H90.9073L97.5834 545.469H99.8561L106.532 563.65H104.224L98.7908 548.345H98.6487L93.2155 563.65ZM94.0678 556.548H103.372V558.501H94.0678V556.548Z" fill="white"/>
<rect x="131.234" y="532.184" width="44.933" height="44.933" rx="10" fill="#336067"/>
<path d="M157.846 550.014C157.739 549.114 157.307 548.416 156.55 547.919C155.792 547.422 154.863 547.173 153.762 547.173C152.957 547.173 152.253 547.303 151.649 547.564C151.051 547.824 150.584 548.182 150.246 548.638C149.915 549.094 149.749 549.612 149.749 550.192C149.749 550.677 149.865 551.094 150.095 551.443C150.332 551.787 150.634 552.074 151.001 552.305C151.368 552.529 151.753 552.716 152.155 552.864C152.558 553.006 152.927 553.121 153.265 553.21L155.111 553.707C155.585 553.831 156.112 554.003 156.692 554.222C157.278 554.441 157.837 554.74 158.37 555.119C158.908 555.492 159.352 555.971 159.701 556.557C160.05 557.143 160.225 557.862 160.225 558.714C160.225 559.697 159.968 560.585 159.453 561.378C158.944 562.171 158.198 562.801 157.215 563.269C156.239 563.736 155.052 563.97 153.655 563.97C152.353 563.97 151.226 563.76 150.273 563.34C149.326 562.919 148.58 562.334 148.036 561.582C147.497 560.83 147.192 559.957 147.121 558.963H149.394C149.453 559.649 149.684 560.218 150.087 560.667C150.495 561.111 151.01 561.443 151.631 561.662C152.259 561.875 152.933 561.981 153.655 561.981C154.496 561.981 155.251 561.845 155.919 561.573C156.588 561.295 157.118 560.91 157.508 560.419C157.899 559.922 158.094 559.342 158.094 558.679C158.094 558.075 157.926 557.584 157.588 557.205C157.251 556.826 156.807 556.519 156.257 556.282C155.706 556.045 155.111 555.838 154.472 555.66L152.235 555.021C150.815 554.613 149.69 554.03 148.861 553.272C148.033 552.515 147.619 551.523 147.619 550.298C147.619 549.28 147.894 548.392 148.444 547.635C149.001 546.871 149.746 546.279 150.681 545.859C151.622 545.433 152.673 545.22 153.833 545.22C155.005 545.22 156.047 545.43 156.958 545.85C157.869 546.265 158.592 546.833 159.124 547.555C159.663 548.277 159.947 549.097 159.976 550.014H157.846Z" fill="white"/>
<rect x="186.167" y="532.184" width="44.933" height="44.933" rx="10" fill="#336067"/>
<path d="M207.447 563.65H201.836V545.469H207.695C209.459 545.469 210.968 545.833 212.223 546.561C213.478 547.283 214.439 548.321 215.108 549.677C215.777 551.026 216.111 552.642 216.111 554.524C216.111 556.418 215.774 558.048 215.099 559.416C214.425 560.777 213.442 561.825 212.152 562.558C210.862 563.286 209.293 563.65 207.447 563.65ZM204.037 561.697H207.304C208.808 561.697 210.054 561.407 211.042 560.827C212.03 560.247 212.767 559.422 213.253 558.35C213.738 557.279 213.981 556.004 213.981 554.524C213.981 553.056 213.741 551.793 213.262 550.733C212.782 549.668 212.066 548.851 211.113 548.283C210.16 547.709 208.974 547.422 207.553 547.422H204.037V561.697Z" fill="white"/>
<g filter="url(#filter3_d_21_4)">
<rect x="241.101" y="532.184" width="44.933" height="44.933" rx="10" fill="#16535D"/>
</g>
<path d="M258.269 563.65V545.469H269.171V547.422H260.47V553.565H268.354V555.518H260.47V563.65H258.269Z" fill="white"/>
<g filter="url(#filter4_d_21_4)">
<rect x="296.034" y="532.184" width="44.933" height="44.933" rx="10" fill="#16535D"/>
</g>
<path d="M323.631 551.15C323.435 550.553 323.178 550.017 322.858 549.544C322.545 549.064 322.169 548.656 321.731 548.318C321.299 547.981 320.808 547.724 320.257 547.546C319.707 547.368 319.103 547.28 318.446 547.28C317.369 547.28 316.389 547.558 315.507 548.114C314.626 548.671 313.924 549.49 313.403 550.573C312.883 551.656 312.622 552.985 312.622 554.559C312.622 556.134 312.886 557.463 313.412 558.546C313.939 559.629 314.652 560.448 315.552 561.005C316.451 561.561 317.464 561.839 318.588 561.839C319.63 561.839 320.547 561.617 321.34 561.173C322.139 560.724 322.761 560.09 323.205 559.274C323.654 558.451 323.879 557.483 323.879 556.371L324.554 556.513H319.085V554.559H326.01V556.513C326.01 558.01 325.69 559.312 325.051 560.419C324.418 561.526 323.542 562.384 322.423 562.993C321.311 563.597 320.032 563.899 318.588 563.899C316.978 563.899 315.564 563.52 314.344 562.763C313.131 562.005 312.184 560.928 311.504 559.531C310.829 558.134 310.491 556.477 310.491 554.559C310.491 553.121 310.684 551.828 311.069 550.68C311.459 549.526 312.01 548.543 312.72 547.732C313.43 546.922 314.27 546.3 315.241 545.868C316.212 545.436 317.28 545.22 318.446 545.22C319.405 545.22 320.299 545.365 321.127 545.655C321.962 545.939 322.704 546.345 323.355 546.871C324.012 547.392 324.56 548.017 324.998 548.744C325.436 549.467 325.738 550.269 325.903 551.15H323.631Z" fill="white"/>
<g filter="url(#filter5_d_21_4)">
<rect x="350.966" y="532.184" width="44.933" height="44.933" rx="10" fill="#16535D"/>
</g>
<path d="M366.135 563.65V545.469H368.336V553.565H378.031V545.469H380.233V563.65H378.031V555.518H368.336V563.65H366.135Z" fill="white"/>
<rect x="405.899" y="532.184" width="44.933" height="44.933" rx="10" fill="#336067"/>
<path d="M430.528 545.469H432.73V558.466C432.73 559.626 432.517 560.611 432.09 561.422C431.664 562.233 431.064 562.848 430.288 563.269C429.513 563.689 428.598 563.899 427.545 563.899C426.551 563.899 425.666 563.718 424.89 563.357C424.115 562.99 423.506 562.47 423.062 561.795C422.618 561.12 422.396 560.318 422.396 559.389H424.562C424.562 559.904 424.689 560.354 424.944 560.738C425.204 561.117 425.559 561.413 426.009 561.626C426.459 561.839 426.971 561.946 427.545 561.946C428.178 561.946 428.717 561.813 429.161 561.546C429.605 561.28 429.942 560.889 430.173 560.374C430.41 559.854 430.528 559.217 430.528 558.466V545.469Z" fill="white"/>
<rect x="460.832" y="532.184" width="44.933" height="44.933" rx="10" fill="#336067"/>
<path d="M477.001 563.65V545.469H479.202V554.488H479.415L487.583 545.469H490.459L482.825 553.672L490.459 563.65H487.796L481.475 555.199L479.202 557.756V563.65H477.001Z" fill="white"/>
<g filter="url(#filter6_d_21_4)">
<rect x="515.765" y="532.184" width="44.933" height="44.933" rx="10" fill="#16535D"/>
</g>
<path d="M532.934 563.65V545.469H535.135V561.697H543.587V563.65H532.934Z" fill="white"/>
<rect x="131.234" y="587.117" width="44.933" height="44.933" rx="10" fill="#336067"/>
<path d="M147.299 618.583V616.985L157.1 602.355H147.192V600.402H159.728V602L149.927 616.63H159.834V618.583H147.299Z" fill="white"/>
<rect x="186.167" y="587.117" width="44.933" height="44.933" rx="10" fill="#336067"/>
<path d="M203.401 600.402L208.088 607.966H208.231L212.918 600.402H215.51L209.793 609.493L215.51 618.583H212.918L208.231 611.162H208.088L203.401 618.583H200.809L206.668 609.493L200.809 600.402H203.401Z" fill="white"/>
<rect x="241.1" y="587.117" width="44.933" height="44.933" rx="10" fill="#336067"/>
<path d="M270.899 606.083H268.698C268.567 605.45 268.339 604.894 268.014 604.414C267.694 603.935 267.304 603.533 266.842 603.207C266.386 602.876 265.88 602.627 265.324 602.461C264.768 602.296 264.188 602.213 263.584 602.213C262.483 602.213 261.486 602.491 260.592 603.047C259.704 603.604 258.997 604.423 258.47 605.506C257.949 606.59 257.689 607.918 257.689 609.493C257.689 611.067 257.949 612.396 258.47 613.479C258.997 614.562 259.704 615.382 260.592 615.938C261.486 616.494 262.483 616.772 263.584 616.772C264.188 616.772 264.768 616.69 265.324 616.524C265.88 616.358 266.386 616.112 266.842 615.787C267.304 615.456 267.694 615.05 268.014 614.571C268.339 614.085 268.567 613.529 268.698 612.902H270.899C270.734 613.831 270.432 614.662 269.994 615.396C269.556 616.13 269.011 616.755 268.36 617.27C267.709 617.779 266.978 618.166 266.167 618.433C265.362 618.699 264.501 618.832 263.584 618.832C262.033 618.832 260.654 618.453 259.447 617.696C258.239 616.938 257.289 615.861 256.597 614.464C255.905 613.067 255.558 611.41 255.558 609.493C255.558 607.575 255.905 605.918 256.597 604.521C257.289 603.124 258.239 602.047 259.447 601.289C260.654 600.532 262.033 600.153 263.584 600.153C264.501 600.153 265.362 600.286 266.167 600.553C266.978 600.819 267.709 601.21 268.36 601.724C269.011 602.233 269.556 602.855 269.994 603.589C270.432 604.317 270.734 605.148 270.899 606.083Z" fill="white"/>
<rect x="296.033" y="587.117" width="44.933" height="44.933" rx="10" fill="#336067"/>
<path d="M312.947 600.402L318.345 615.707H318.558L323.956 600.402H326.264L319.588 618.583H317.315L310.639 600.402H312.947Z" fill="white"/>
<g filter="url(#filter7_d_21_4)">
<rect x="350.966" y="587.117" width="44.933" height="44.933" rx="10" fill="#16535D"/>
</g>
<path d="M367.135 618.583V600.402H373.491C374.758 600.402 375.802 600.621 376.625 601.059C377.448 601.491 378.06 602.074 378.463 602.808C378.865 603.536 379.066 604.343 379.066 605.231C379.066 606.012 378.927 606.658 378.649 607.167C378.377 607.676 378.016 608.078 377.566 608.374C377.122 608.67 376.64 608.889 376.119 609.031V609.208C376.675 609.244 377.235 609.439 377.797 609.794C378.359 610.15 378.83 610.659 379.208 611.321C379.587 611.984 379.777 612.795 379.777 613.754C379.777 614.665 379.569 615.485 379.155 616.213C378.741 616.941 378.087 617.518 377.193 617.944C376.299 618.37 375.136 618.583 373.704 618.583H367.135ZM369.336 616.63H373.704C375.142 616.63 376.163 616.352 376.767 615.796C377.377 615.234 377.681 614.553 377.681 613.754C377.681 613.138 377.525 612.57 377.211 612.049C376.897 611.523 376.45 611.102 375.87 610.789C375.29 610.469 374.604 610.309 373.811 610.309H369.336V616.63ZM369.336 608.392H373.42C374.083 608.392 374.681 608.262 375.213 608.001C375.752 607.741 376.178 607.374 376.492 606.9C376.811 606.427 376.971 605.87 376.971 605.231C376.971 604.432 376.693 603.755 376.137 603.198C375.58 602.636 374.698 602.355 373.491 602.355H369.336V608.392Z" fill="white"/>
<g filter="url(#filter8_d_21_4)">
<rect x="405.899" y="587.117" width="44.933" height="44.933" rx="10" fill="#16535D"/>
</g>
<path d="M435.485 600.402V618.583H433.354L423.447 604.308H423.269V618.583H421.068V600.402H423.198L433.141 614.713H433.319V600.402H435.485Z" fill="white"/>
<rect x="460.832" y="587.117" width="44.933" height="44.933" rx="10" fill="#336067"/>
<path d="M474.001 600.402H476.628L482.807 615.494H483.02L489.199 600.402H491.827V618.583H489.768V604.77H489.59L483.908 618.583H481.92L476.238 604.77H476.06V618.583H474.001V600.402Z" fill="white"/>
</g>
<line x1="131.637" y1="428.751" x2="176.455" y2="428.751" stroke="white" stroke-width="3"/>
<path d="M142.981 421.251V392.887H146.416V405.518H161.539V392.887H164.974V421.251H161.539V408.565H146.416V421.251H142.981Z" fill="white"/>
<line x1="186.455" y1="428.751" x2="231.273" y2="428.751" stroke="white" stroke-width="3"/>
<path d="M198.962 421.251H195.361L205.776 392.887H209.322L219.736 421.251H216.136L207.66 397.375H207.438L198.962 421.251ZM200.292 410.171H214.806V413.218H200.292V410.171Z" fill="white"/>
<line x1="241.273" y1="428.751" x2="286.091" y2="428.751" stroke="white" stroke-width="3"/>
<path d="M274.608 392.887V421.251H271.284L255.828 398.981H255.551V421.251H252.117V392.887H255.441L270.952 415.213H271.229V392.887H274.608Z" fill="white"/>
<line x1="296.091" y1="428.751" x2="340.909" y2="428.751" stroke="white" stroke-width="3"/>
<path d="M326.824 401.751C326.519 400.818 326.118 399.983 325.619 399.244C325.13 398.496 324.543 397.859 323.86 397.333C323.186 396.807 322.42 396.405 321.561 396.128C320.702 395.851 319.761 395.713 318.736 395.713C317.055 395.713 315.527 396.147 314.152 397.014C312.776 397.882 311.682 399.161 310.869 400.851C310.057 402.54 309.651 404.613 309.651 407.069C309.651 409.525 310.061 411.598 310.883 413.288C311.705 414.977 312.817 416.256 314.221 417.124C315.624 417.992 317.203 418.426 318.957 418.426C320.582 418.426 322.013 418.079 323.251 417.387C324.497 416.685 325.467 415.697 326.159 414.423C326.861 413.14 327.212 411.63 327.212 409.894L328.264 410.116H319.733V407.069H330.536V410.116C330.536 412.452 330.037 414.483 329.04 416.21C328.052 417.936 326.685 419.275 324.94 420.226C323.205 421.168 321.21 421.639 318.957 421.639C316.446 421.639 314.239 421.048 312.337 419.866C310.445 418.684 308.967 417.004 307.906 414.825C306.853 412.646 306.327 410.061 306.327 407.069C306.327 404.826 306.627 402.808 307.227 401.017C307.836 399.217 308.695 397.684 309.803 396.419C310.911 395.154 312.222 394.185 313.736 393.511C315.25 392.837 316.917 392.5 318.736 392.5C320.232 392.5 321.626 392.726 322.918 393.178C324.22 393.621 325.379 394.254 326.395 395.076C327.419 395.888 328.273 396.862 328.957 397.998C329.64 399.124 330.111 400.375 330.369 401.751H326.824Z" fill="white"/>
<line x1="350.909" y1="428.751" x2="395.727" y2="428.751" stroke="white" stroke-width="3"/>
<line x1="405.727" y1="428.751" x2="450.545" y2="428.751" stroke="white" stroke-width="3"/>
<path d="M419.234 421.251H415.633L426.048 392.887H429.593L440.008 421.251H436.407L427.931 397.375H427.709L419.234 421.251ZM420.563 410.171H435.077V413.218H420.563V410.171Z" fill="white"/>
<line x1="460.545" y1="428.751" x2="505.362" y2="428.751" stroke="white" stroke-width="3"/>
<path d="M493.88 392.887V421.251H490.556L475.1 398.981H474.823V421.251H471.388V392.887H474.712L490.223 415.213H490.5V392.887H493.88Z" fill="white"/>
</g>
<defs>
<filter id="filter0_d_21_4" x="44.835" y="477.251" width="547.33" height="162.799" filterUnits="userSpaceOnUse" color-interpolation-filters="sRGB">
<feFlood flood-opacity="0" result="BackgroundImageFix"/>
<feColorMatrix in="SourceAlpha" type="matrix" values="0 0 0 0 0 0 0 0 0 0 0 0 0 0 0 0 0 0 127 0" result="hardAlpha"/>
<feOffset dy="4"/>
<feGaussianBlur stdDeviation="2"/>
<feComposite in2="hardAlpha" operator="out"/>
<feColorMatrix type="matrix" values="0 0 0 0 0 0 0 0 0 0 0 0 0 0 0 0 0 0 0.25 0"/>
<feBlend mode="normal" in2="BackgroundImageFix" result="effect1_dropShadow_21_4"/>
<feBlend mode="normal" in="SourceGraphic" in2="effect1_dropShadow_21_4" result="shape"/>
</filter>
<filter id="filter1_d_21_4" x="429.366" y="477.251" width="52.933" height="52.933" filterUnits="userSpaceOnUse" color-interpolation-filters="sRGB">
<feFlood flood-opacity="0" result="BackgroundImageFix"/>
<feColorMatrix in="SourceAlpha" type="matrix" values="0 0 0 0 0 0 0 0 0 0 0 0 0 0 0 0 0 0 127 0" result="hardAlpha"/>
<feOffset dy="4"/>
<feGaussianBlur stdDeviation="2"/>
<feComposite in2="hardAlpha" operator="out"/>
<feColorMatrix type="matrix" values="0 0 0 0 0 0 0 0 0 0 0 0 0 0 0 0 0 0 0.25 0"/>
<feBlend mode="normal" in2="BackgroundImageFix" result="effect1_dropShadow_21_4"/>
<feBlend mode="normal" in="SourceGraphic" in2="effect1_dropShadow_21_4" result="shape"/>
</filter>
<filter id="filter2_d_21_4" x="72.3015" y="532.184" width="52.933" height="52.933" filterUnits="userSpaceOnUse" color-interpolation-filters="sRGB">
<feFlood flood-opacity="0" result="BackgroundImageFix"/>
<feColorMatrix in="SourceAlpha" type="matrix" values="0 0 0 0 0 0 0 0 0 0 0 0 0 0 0 0 0 0 127 0" result="hardAlpha"/>
<feOffset dy="4"/>
<feGaussianBlur stdDeviation="2"/>
<feComposite in2="hardAlpha" operator="out"/>
<feColorMatrix type="matrix" values="0 0 0 0 0 0 0 0 0 0 0 0 0 0 0 0 0 0 0.25 0"/>
<feBlend mode="normal" in2="BackgroundImageFix" result="effect1_dropShadow_21_4"/>
<feBlend mode="normal" in="SourceGraphic" in2="effect1_dropShadow_21_4" result="shape"/>
</filter>
<filter id="filter3_d_21_4" x="237.101" y="532.184" width="52.933" height="52.933" filterUnits="userSpaceOnUse" color-interpolation-filters="sRGB">
<feFlood flood-opacity="0" result="BackgroundImageFix"/>
<feColorMatrix in="SourceAlpha" type="matrix" values="0 0 0 0 0 0 0 0 0 0 0 0 0 0 0 0 0 0 127 0" result="hardAlpha"/>
<feOffset dy="4"/>
<feGaussianBlur stdDeviation="2"/>
<feComposite in2="hardAlpha" operator="out"/>
<feColorMatrix type="matrix" values="0 0 0 0 0 0 0 0 0 0 0 0 0 0 0 0 0 0 0.25 0"/>
<feBlend mode="normal" in2="BackgroundImageFix" result="effect1_dropShadow_21_4"/>
<feBlend mode="normal" in="SourceGraphic" in2="effect1_dropShadow_21_4" result="shape"/>
</filter>
<filter id="filter4_d_21_4" x="292.034" y="532.184" width="52.933" height="52.933" filterUnits="userSpaceOnUse" color-interpolation-filters="sRGB">
<feFlood flood-opacity="0" result="BackgroundImageFix"/>
<feColorMatrix in="SourceAlpha" type="matrix" values="0 0 0 0 0 0 0 0 0 0 0 0 0 0 0 0 0 0 127 0" result="hardAlpha"/>
<feOffset dy="4"/>
<feGaussianBlur stdDeviation="2"/>
<feComposite in2="hardAlpha" operator="out"/>
<feColorMatrix type="matrix" values="0 0 0 0 0 0 0 0 0 0 0 0 0 0 0 0 0 0 0.25 0"/>
<feBlend mode="normal" in2="BackgroundImageFix" result="effect1_dropShadow_21_4"/>
<feBlend mode="normal" in="SourceGraphic" in2="effect1_dropShadow_21_4" result="shape"/>
</filter>
<filter id="filter5_d_21_4" x="346.966" y="532.184" width="52.933" height="52.933" filterUnits="userSpaceOnUse" color-interpolation-filters="sRGB">
<feFlood flood-opacity="0" result="BackgroundImageFix"/>
<feColorMatrix in="SourceAlpha" type="matrix" values="0 0 0 0 0 0 0 0 0 0 0 0 0 0 0 0 0 0 127 0" result="hardAlpha"/>
<feOffset dy="4"/>
<feGaussianBlur stdDeviation="2"/>
<feComposite in2="hardAlpha" operator="out"/>
<feColorMatrix type="matrix" values="0 0 0 0 0 0 0 0 0 0 0 0 0 0 0 0 0 0 0.25 0"/>
<feBlend mode="normal" in2="BackgroundImageFix" result="effect1_dropShadow_21_4"/>
<feBlend mode="normal" in="SourceGraphic" in2="effect1_dropShadow_21_4" result="shape"/>
</filter>
<filter id="filter6_d_21_4" x="511.765" y="532.184" width="52.933" height="52.933" filterUnits="userSpaceOnUse" color-interpolation-filters="sRGB">
<feFlood flood-opacity="0" result="BackgroundImageFix"/>
<feColorMatrix in="SourceAlpha" type="matrix" values="0 0 0 0 0 0 0 0 0 0 0 0 0 0 0 0 0 0 127 0" result="hardAlpha"/>
<feOffset dy="4"/>
<feGaussianBlur stdDeviation="2"/>
<feComposite in2="hardAlpha" operator="out"/>
<feColorMatrix type="matrix" values="0 0 0 0 0 0 0 0 0 0 0 0 0 0 0 0 0 0 0.25 0"/>
<feBlend mode="normal" in2="BackgroundImageFix" result="effect1_dropShadow_21_4"/>
<feBlend mode="normal" in="SourceGraphic" in2="effect1_dropShadow_21_4" result="shape"/>
</filter>
<filter id="filter7_d_21_4" x="346.966" y="587.117" width="52.933" height="52.933" filterUnits="userSpaceOnUse" color-interpolation-filters="sRGB">
<feFlood flood-opacity="0" result="BackgroundImageFix"/>
<feColorMatrix in="SourceAlpha" type="matrix" values="0 0 0 0 0 0 0 0 0 0 0 0 0 0 0 0 0 0 127 0" result="hardAlpha"/>
<feOffset dy="4"/>
<feGaussianBlur stdDeviation="2"/>
<feComposite in2="hardAlpha" operator="out"/>
<feColorMatrix type="matrix" values="0 0 0 0 0 0 0 0 0 0 0 0 0 0 0 0 0 0 0.25 0"/>
<feBlend mode="normal" in2="BackgroundImageFix" result="effect1_dropShadow_21_4"/>
<feBlend mode="normal" in="SourceGraphic" in2="effect1_dropShadow_21_4" result="shape"/>
</filter>
<filter id="filter8_d_21_4" x="401.899" y="587.117" width="52.933" height="52.933" filterUnits="userSpaceOnUse" color-interpolation-filters="sRGB">
<feFlood flood-opacity="0" result="BackgroundImageFix"/>
<feColorMatrix in="SourceAlpha" type="matrix" values="0 0 0 0 0 0 0 0 0 0 0 0 0 0 0 0 0 0 127 0" result="hardAlpha"/>
<feOffset dy="4"/>
<feGaussianBlur stdDeviation="2"/>
<feComposite in2="hardAlpha" operator="out"/>
<feColorMatrix type="matrix" values="0 0 0 0 0 0 0 0 0 0 0 0 0 0 0 0 0 0 0.25 0"/>
<feBlend mode="normal" in2="BackgroundImageFix" result="effect1_dropShadow_21_4"/>
<feBlend mode="normal" in="SourceGraphic" in2="effect1_dropShadow_21_4" result="shape"/>
</filter>
<clipPath id="clip0_21_4">
<rect width="628" height="663" fill="white"/>
</clipPath>
</defs>
</svg>
